<?xml version="1.0" encoding="iso-8859-1"?>
<!-- Generator: Adobe Illustrator 19.0.0, SVG Export Plug-In . SVG Version: 6.00 Build 0)  -->
<svg version="1.1" id="Capa_1" xmlns="http://www.w3.org/2000/svg" xmlns:xlink="http://www.w3.org/1999/xlink" x="0px" y="0px"
	 viewBox="0 0 511.999 511.999" style="enable-background:new 0 0 511.999 511.999;" xml:space="preserve">
<g>
	<g>
		<path d="M505.562,6.752c-13.298-13.303-34.774-2.552-50.858,7.176c-16.559,10.017-38.354,26.164-64.781,47.994
			c-56.335,46.536-120.414,107.515-172.207,159.311l-0.049-0.031c-29.104,29.378-56.786,58.12-89.148,95.548
			c-14.94-2.252-31.88-0.335-47.596,6.256l-0.36,0.157c-32.348,14.573-53.481,46.966-53.838,82.525v0.151
			c0,39.443-6.867,71.156-13.649,82.096L0,509.023l24.748,1.777c6.072,0.436,12.434,0.66,18.993,0.66
			c48.183,0,106.94-12.101,138.623-41.167l0.086-0.08c16.334-15.222,24.274-36.279,24.274-64.375c0-3.357-0.203-6.69-0.603-10.05
			c37.324-32.277,66.067-59.798,95.99-89.172l-0.057-0.096c61.123-61.118,115.605-125.408,154.634-179.145
			c19.632-27.03,34.857-50.875,44.029-68.956C510.122,39.88,518.052,19.242,505.562,6.752z M162.038,448.228
			c-21.268,19.471-67.946,32.623-114.347,33.24c5.668-19.905,9.026-46.957,9.032-75.549c0.267-23.818,14.376-45.505,35.981-55.322
			c12.829-5.332,25.726-6.146,39.373-2.357c1.649,0,15.504,3.471,27.138,15.105C184.093,388.222,180.547,430.932,162.038,448.228z
			 M196.582,364.287c-4.177-8.126-9.613-15.614-16.153-22.155c-6.246-6.246-13.202-11.39-20.798-15.417
			c19.514-22.191,40.678-45.002,62.29-67.121c7.862,5.64,15.296,11.952,22.194,18.851l0.147,0.146
			c7.291,7.094,13.903,14.915,19.744,23.342C241.348,323.915,218.767,344.785,196.582,364.287z M424.357,120.686
			c-38.692,51.833-89.104,109.891-138.767,159.859c-6.143-8.358-12.942-16.184-20.335-23.385
			c-6.884-6.878-14.235-13.25-21.962-19.071c55.34-55.198,110.038-106.065,154.357-143.526c45.014-38.049,68.9-53.497,80.983-59.763
			C468.191,60.07,440.724,98.76,424.357,120.686z"/>
	</g>
</g>
<g>
</g>
<g>
</g>
<g>
</g>
<g>
</g>
<g>
</g>
<g>
</g>
<g>
</g>
<g>
</g>
<g>
</g>
<g>
</g>
<g>
</g>
<g>
</g>
<g>
</g>
<g>
</g>
<g>
</g>
</svg>
